<?xml version="1.0" encoding="utf-8"?>
<!-- Generator: Adobe Illustrator 16.0.0, SVG Export Plug-In . SVG Version: 6.00 Build 0)  -->
<!DOCTYPE svg PUBLIC "-//W3C//DTD SVG 1.1//EN" "http://www.w3.org/Graphics/SVG/1.1/DTD/svg11.dtd">
<svg version="1.1" id="Layer_1" xmlns="http://www.w3.org/2000/svg" xmlns:xlink="http://www.w3.org/1999/xlink" x="0px" y="0px"
	 width="24px" height="24px" viewBox="0 0 24 24" enable-background="new 0 0 24 24" xml:space="preserve">
<g>
	<path d="M12,0.05c-3.505,0-6.356,2.882-6.356,6.423c0,0.002,0.001,0.003,0.001,0.004c0,0.002-0.001,0.004-0.001,0.005l0.202,6.244
		c0.001,0.023,0.02,0.038,0.026,0.059c0.009,0.03,0.016,0.056,0.035,0.08c0.021,0.027,0.046,0.042,0.077,0.058
		c0.019,0.011,0.027,0.031,0.049,0.037c0.021,0.006,0.042,0.008,0.063,0.008c0.002,0,0.005,0,0.008,0c0.01,0,0.015-0.01,0.024-0.011
		c0.05-0.007,0.095-0.025,0.132-0.06c0.016-0.016,0.022-0.033,0.034-0.051c0.014-0.022,0.036-0.039,0.043-0.065l0.576-2.203
		l0.471,1.837c0.007,0.027,0.029,0.043,0.043,0.064c0.012,0.02,0.018,0.037,0.034,0.052c0.037,0.034,0.081,0.052,0.13,0.06
		c0.01,0.002,0.016,0.012,0.026,0.012c0.003,0,0.006,0,0.009,0c0.021,0,0.042-0.002,0.062-0.008c0.021-0.005,0.031-0.026,0.05-0.037
		c0.03-0.016,0.055-0.029,0.076-0.057c0.02-0.024,0.027-0.05,0.036-0.08c0.007-0.021,0.025-0.035,0.026-0.059l0.016-0.416
		c0.129,0.16,0.261,0.316,0.399,0.46c-1.35,3.153-0.429,4.37-0.035,4.714c-0.26,1.602-0.679,3.494-1.359,5.432
		C6.857,22.661,6.901,22.784,7,22.846c0.041,0.025,0.086,0.037,0.132,0.037c0.065,0,0.131-0.025,0.179-0.075
		c0.265-0.272,0.52-0.661,0.764-1.112l1.333,0.272l0.346,1.78C9.778,23.865,9.881,23.95,10,23.95h0.875
		c0.108,0,0.204-0.069,0.238-0.173l0.658-2.025l0.521,0.197l0.596,1.828c0.034,0.104,0.129,0.173,0.238,0.173H14
		c0.12,0,0.223-0.085,0.246-0.202l0.401-2.06l0.048-0.019l1.305,0.168c0.221,0.391,0.451,0.725,0.689,0.97
		c0.048,0.05,0.114,0.075,0.179,0.075c0.045,0,0.091-0.012,0.132-0.037c0.1-0.062,0.143-0.185,0.104-0.295
		c-0.681-1.939-1.1-3.834-1.36-5.438c0.397-0.353,1.295-1.573-0.04-4.7c0.216-0.225,0.426-0.465,0.622-0.73l0.008,0.092
		c0.002,0.022,0.021,0.036,0.028,0.057c0.01,0.027,0.017,0.051,0.036,0.073c0.022,0.028,0.049,0.043,0.081,0.059
		c0.018,0.009,0.026,0.028,0.046,0.034c0.02,0.004,0.038,0.006,0.057,0.006c0,0,0,0,0,0h0l0,0l0,0c0.007,0,0.014,0,0.021,0
		c0.015-0.002,0.023-0.016,0.037-0.02c0.043-0.011,0.081-0.026,0.112-0.058c0.017-0.017,0.024-0.034,0.036-0.056
		c0.012-0.021,0.032-0.035,0.038-0.059l0.155-0.654l0.694,1.658c0.008,0.018,0.025,0.027,0.037,0.043s0.019,0.028,0.034,0.041
		c0.039,0.035,0.084,0.057,0.136,0.062c0.006,0.001,0.01,0.007,0.016,0.007c0.003,0,0.006,0,0.008,0c0.032,0,0.065-0.006,0.097-0.02
		c0.015-0.006,0.019-0.023,0.032-0.032c0.029-0.019,0.047-0.038,0.066-0.067c0.018-0.025,0.029-0.049,0.036-0.08
		c0.004-0.016,0.019-0.025,0.019-0.042l0.202-6.244c0-0.001-0.001-0.003-0.001-0.005c0-0.001,0.001-0.002,0.001-0.004
		C18.356,2.932,15.505,0.05,12,0.05z M8.677,12.78c0,0,0.001,0.001,0.001,0.001c-0.004,0.31-0.04,1.717-0.32,3.674
		C8.074,15.973,7.81,14.897,8.677,12.78z M9.167,13.166c0.288,0.205,0.585,0.383,0.894,0.523c-0.171,0.836-0.994,4.671-2.095,7.111
		C8.927,17.33,9.126,14.275,9.167,13.166z M10.483,14.123l1.324,1.584c0.005,0.006,0.014,0.004,0.02,0.009
		c0.006,0.007,0.005,0.017,0.012,0.022c0.047,0.039,0.104,0.059,0.161,0.059s0.114-0.02,0.16-0.059
		c0.007-0.006,0.005-0.016,0.011-0.021s0.015-0.004,0.021-0.01l1.326-1.584c0.151,0.711,0.457,2.068,0.88,3.537H9.603
		C10.026,16.191,10.332,14.834,10.483,14.123z M11.999,15.156l-0.96-1.147c0.316,0.068,0.636,0.115,0.961,0.115
		c0.325,0,0.644-0.047,0.959-0.114L11.999,15.156z M10.693,23.45h-0.487L9.93,22.026l1.318-0.283L10.693,23.45z M13.793,23.45
		h-0.487l-0.415-1.272l0.151,0.058c0.029,0.011,0.059,0.017,0.089,0.017s0.06-0.006,0.089-0.018l0.874-0.334L13.793,23.45z
		 M13.938,13.689c0.309-0.14,0.606-0.317,0.894-0.523c0.042,1.111,0.241,4.164,1.2,7.635C14.933,18.361,14.11,14.527,13.938,13.689z
		 M15.64,16.441c-0.275-1.926-0.313-3.313-0.318-3.645C16.173,14.887,15.921,15.956,15.64,16.441z M12,13.624
		c-1.55,0-3.01-0.901-4.079-2.476l0.126-3.386l0.414,0.789c0,0.001,0.001,0.001,0.002,0.002C8.465,8.558,8.47,8.559,8.472,8.563
		c0.03,0.049,0.073,0.08,0.123,0.1c0.008,0.002,0.01,0.012,0.018,0.014c0.023,0.007,0.047,0.01,0.07,0.01
		c0.04,0,0.079-0.01,0.116-0.029c0.005-0.002,0.006-0.01,0.011-0.013c0.046-0.028,0.081-0.068,0.102-0.122
		c0.002-0.005,0.008-0.008,0.01-0.014c0-0.001,0.001-0.002,0.002-0.002l0.441-1.519l0.6,1.175c0.002,0.005,0.008,0.006,0.011,0.012
		c0.006,0.011,0.016,0.016,0.024,0.025c0.031,0.038,0.069,0.064,0.114,0.078c0.009,0.003,0.013,0.014,0.022,0.016
		c0.017,0.003,0.034,0.005,0.051,0.005c0,0,0,0,0,0l0,0c0,0,0,0,0,0c0,0,0-0.001,0.001-0.001c0.038,0,0.076-0.008,0.112-0.026
		c0.008-0.004,0.008-0.014,0.016-0.019c0.035-0.021,0.056-0.053,0.077-0.09c0.01-0.018,0.025-0.03,0.031-0.05
		c0.001-0.005,0.007-0.008,0.008-0.013l0.195-0.922l0.667,2.771c0.005,0.022,0.024,0.035,0.035,0.054
		c0.011,0.021,0.019,0.039,0.035,0.055c0.03,0.031,0.064,0.047,0.105,0.06c0.015,0.005,0.022,0.02,0.038,0.021
		c0.01,0.001,0.02,0.002,0.03,0.002l0,0l0,0c0,0,0,0,0,0s0,0,0,0c0.019,0,0.038-0.003,0.058-0.007
		c0.019-0.004,0.027-0.023,0.043-0.031c0.033-0.016,0.059-0.032,0.082-0.061c0.019-0.021,0.027-0.043,0.037-0.07
		c0.007-0.019,0.024-0.031,0.027-0.051l0.188-1.561l1.018-1.786l0.794,1.587c0.023,0.045,0.059,0.08,0.1,0.104
		c0.001,0,0.001,0.002,0.002,0.002c0.039,0.021,0.08,0.032,0.122,0.032c0.038,0,0.076-0.009,0.112-0.026
		c0.002-0.001,0.002-0.004,0.004-0.005c0.042-0.021,0.078-0.054,0.103-0.097l0.716-1.285l0.126,1.57
		c0.001,0.012,0.011,0.018,0.013,0.027c0.006,0.029,0.021,0.049,0.036,0.074c0.019,0.03,0.035,0.056,0.063,0.076
		c0.009,0.006,0.01,0.019,0.021,0.023c0.037,0.02,0.076,0.029,0.115,0.029c0,0,0,0,0.001,0h0l0,0l0,0c0.007,0,0.013,0,0.02-0.001
		c0.008-0.001,0.012-0.009,0.019-0.01c0.049-0.009,0.09-0.03,0.127-0.064c0.012-0.011,0.021-0.02,0.031-0.033
		c0.007-0.01,0.019-0.015,0.024-0.025L15.99,7.69l0.268,3.185C15.177,12.621,13.638,13.624,12,13.624z"/>
	<path d="M10.035,8.447c-0.574,0-1.043,0.512-1.043,1.148c0,0.633,0.47,1.148,1.043,1.148c0.575,0,1.04-0.516,1.04-1.148
		C11.075,8.959,10.61,8.447,10.035,8.447z M10.233,9.638c-0.265,0-0.476-0.233-0.476-0.523s0.211-0.522,0.476-0.522
		c0.262,0,0.476,0.232,0.476,0.522S10.495,9.638,10.233,9.638z"/>
	<path d="M13.968,8.447c-0.574,0-1.041,0.512-1.041,1.148c0,0.633,0.467,1.148,1.041,1.148c0.576,0,1.041-0.516,1.041-1.148
		C15.008,8.959,14.543,8.447,13.968,8.447z M14.169,9.638c-0.261,0-0.475-0.233-0.475-0.523s0.214-0.522,0.475-0.522
		c0.261,0,0.475,0.232,0.475,0.522S14.43,9.638,14.169,9.638z"/>
</g>
</svg>
